<svg xmlns="http://www.w3.org/2000/svg" xmlns:xlink="http://www.w3.org/1999/xlink" viewBox="0,0,256,256" width="50px" height="50px" fill-rule="nonzero"><g fill="#ff1717" fill-rule="nonzero" stroke="none" stroke-width="1" stroke-linecap="butt" stroke-linejoin="miter" stroke-miterlimit="10" stroke-dasharray="" stroke-dashoffset="0" font-family="none" font-weight="none" font-size="none" text-anchor="none" style="mix-blend-mode: normal"><g transform="scale(5.33333,5.33333)"><path d="M24.50586,3.00391c-11.29562,0 -20.49414,9.19749 -20.49414,20.49219c0,11.29469 9.19852,20.49219 20.49414,20.49219c11.29562,0 20.49219,-9.19749 20.49219,-20.49219c0,-11.29469 -9.19657,-20.49219 -20.49219,-20.49219zM24.50586,6.00391c9.67238,0 17.49219,7.82088 17.49219,17.49219c0,9.67131 -7.81981,17.49219 -17.49219,17.49219c-9.67238,0 -17.49414,-7.82088 -17.49414,-17.49219c0,-9.6713 7.82176,-17.49219 17.49414,-17.49219zM33.51758,13.9668c-0.41304,0.00293 -0.8066,0.17604 -1.08789,0.47851l-7.92969,7.9375l-7.93164,-7.9375c-0.28248,-0.2909 -0.67069,-0.45506 -1.07617,-0.45508c-0.61013,0.00017 -1.15937,0.36984 -1.38921,0.93502c-0.22984,0.56518 -0.0945,1.21326 0.34234,1.6392l8.55469,8.5625v10.37891c-0.00765,0.54095 0.27656,1.04412 0.74381,1.31683c0.46725,0.27271 1.04514,0.27271 1.51238,0c0.46725,-0.27271 0.75146,-0.77588 0.74381,-1.31683v-10.38086l8.55078,-8.56055c0.45238,-0.42152 0.59979,-1.07742 0.37127,-1.65197c-0.22852,-0.57455 -0.78616,-0.95003 -1.40447,-0.94568z"></path></g></g></svg>