<svg xmlns="http://www.w3.org/2000/svg" viewBox="0 21.399999618530273 25.850000381469727 27.350000381469727" data-asc="0.968" width="25.850000381469727" height="27.350000381469727"><defs/><g><g fill="#777777"><g transform="translate(0, 0)"><path d="M14.45 48.75Q10.25 48.75 6.97 46.98Q3.70 45.20 1.85 42.10Q0 39 0 35.05Q0 31.05 1.85 27.97Q3.70 24.90 6.97 23.15Q10.25 21.40 14.45 21.40Q18.35 21.40 21.33 22.97Q24.30 24.55 25.85 27.60L21.05 30.40Q19.85 28.50 18.13 27.60Q16.40 26.70 14.40 26.70Q12.10 26.70 10.25 27.70Q8.40 28.70 7.35 30.57Q6.30 32.45 6.30 35.05Q6.30 37.65 7.35 39.52Q8.40 41.40 10.25 42.40Q12.10 43.40 14.40 43.40Q16.40 43.40 18.13 42.50Q19.85 41.60 21.05 39.70L25.85 42.50Q24.30 45.50 21.33 47.13Q18.35 48.75 14.45 48.75Z"/></g></g></g></svg>