<svg class="logo-icon" xmlns="http://www.w3.org/2000/svg" viewBox="0 11.300000190734863 224.0500030517578 46.79999923706055" data-asc="0.968">
    <defs/>
    <g>
        <g fill="#ffffff">
            <g transform="translate(0, 0)">
                <path d="M18.70 48.90Q14.70 48.90 11.28 47.57Q7.85 46.25 5.33 43.82Q2.80 41.40 1.40 38.10Q0 34.80 0 30.90Q0 27.00 1.40 23.70Q2.80 20.40 5.35 17.97Q7.90 15.55 11.30 14.22Q14.70 12.90 18.75 12.90Q23.05 12.90 26.60 14.38Q30.15 15.85 32.60 18.75L28.40 22.70Q26.50 20.65 24.15 19.62Q21.80 18.60 19.05 18.60Q16.30 18.60 14.03 19.50Q11.75 20.40 10.07 22.05Q8.40 23.70 7.48 25.95Q6.55 28.20 6.55 30.90Q6.55 33.60 7.48 35.85Q8.40 38.10 10.07 39.75Q11.75 41.40 14.03 42.30Q16.30 43.20 19.05 43.20Q21.80 43.20 24.15 42.17Q26.50 41.15 28.40 39.05L32.60 43.05Q30.15 45.90 26.60 47.40Q23.05 48.90 18.70 48.90ZM54.70 48.40L54.70 43L54.35 41.85L54.35 32.40Q54.35 29.65 52.70 28.12Q51.05 26.60 47.70 26.60Q45.45 26.60 43.27 27.30Q41.10 28.00 39.60 29.25L37.15 24.70Q39.30 23.05 42.27 22.22Q45.25 21.40 48.45 21.40Q54.25 21.40 57.42 24.17Q60.60 26.95 60.60 32.75L60.60 48.40L54.70 48.40M46.30 48.75Q43.30 48.75 41.05 47.73Q38.80 46.70 37.57 44.88Q36.35 43.05 36.35 40.75Q36.35 38.50 37.42 36.70Q38.50 34.90 40.95 33.85Q43.40 32.80 47.45 32.80L55.20 32.80L55.20 36.95L47.90 36.95Q44.70 36.95 43.60 37.97Q42.50 39 42.50 40.50Q42.50 42.20 43.85 43.20Q45.20 44.20 47.60 44.20Q49.90 44.20 51.72 43.15Q53.55 42.10 54.35 40.05L55.40 43.80Q54.50 46.15 52.17 47.45Q49.85 48.75 46.30 48.75ZM68.60 48.40L68.60 21.70L74.55 21.70L74.55 29.05L73.85 26.90Q75.05 24.20 77.63 22.80Q80.20 21.40 84.05 21.40L84.05 27.35Q83.65 27.25 83.30 27.22Q82.95 27.20 82.60 27.20Q79.05 27.20 76.95 29.27Q74.85 31.35 74.85 35.45L74.85 48.40L68.60 48.40ZM100.90 48.75Q97.05 48.75 93.97 47.02Q90.90 45.30 89.15 42.25Q87.40 39.20 87.40 35.05Q87.40 30.90 89.15 27.85Q90.90 24.80 93.97 23.10Q97.05 21.40 100.90 21.40Q104.25 21.40 106.90 22.87Q109.55 24.35 111.10 27.35Q112.65 30.35 112.65 35.05Q112.65 39.70 111.15 42.72Q109.65 45.75 107 47.25Q104.35 48.75 100.90 48.75M101.65 43.40Q103.90 43.40 105.67 42.40Q107.45 41.40 108.53 39.50Q109.60 37.60 109.60 35.05Q109.60 32.45 108.53 30.57Q107.45 28.70 105.67 27.70Q103.90 26.70 101.65 26.70Q99.40 26.70 97.63 27.70Q95.85 28.70 94.78 30.57Q93.70 32.45 93.70 35.05Q93.70 37.60 94.78 39.50Q95.85 41.40 97.63 42.40Q99.40 43.40 101.65 43.40M109.75 48.40L109.75 42.10L110 35L109.50 27.90L109.50 11.30L115.70 11.30L115.70 48.40L109.75 48.40ZM119.60 48.40L135.35 13.40L141.75 13.40L157.55 48.40L150.75 48.40L137.20 16.85L139.80 16.85L126.30 48.40L119.60 48.40M126.85 40.30L128.60 35.20L147.50 35.20L149.25 40.30L126.85 40.30ZM176.20 48.75Q172.95 48.75 170.28 47.25Q167.60 45.75 166.03 42.72Q164.45 39.70 164.45 35.05Q164.45 30.35 165.98 27.35Q167.50 24.35 170.15 22.87Q172.80 21.40 176.20 21.40Q180.15 21.40 183.18 23.10Q186.20 24.80 187.98 27.85Q189.75 30.90 189.75 35.05Q189.75 39.20 187.98 42.27Q186.20 45.35 183.18 47.05Q180.15 48.75 176.20 48.75M161.40 58.10L161.40 21.70L167.35 21.70L167.35 28.00L167.15 35.10L167.65 42.20L167.65 58.10L161.40 58.10M175.50 43.40Q177.75 43.40 179.53 42.40Q181.30 41.40 182.35 39.50Q183.40 37.60 183.40 35.05Q183.40 32.45 182.35 30.57Q181.30 28.70 179.53 27.70Q177.75 26.70 175.50 26.70Q173.25 26.70 171.45 27.70Q169.65 28.70 168.60 30.57Q167.55 32.45 167.55 35.05Q167.55 37.60 168.60 39.50Q169.65 41.40 171.45 42.40Q173.25 43.40 175.50 43.40ZM210.50 48.75Q207.25 48.75 204.58 47.25Q201.90 45.75 200.33 42.72Q198.75 39.70 198.75 35.05Q198.75 30.35 200.28 27.35Q201.80 24.35 204.45 22.87Q207.10 21.40 210.50 21.40Q214.45 21.40 217.48 23.10Q220.50 24.80 222.28 27.85Q224.05 30.90 224.05 35.05Q224.05 39.20 222.28 42.27Q220.50 45.35 217.48 47.05Q214.45 48.75 210.50 48.75M195.70 58.10L195.70 21.70L201.65 21.70L201.65 28.00L201.45 35.10L201.95 42.20L201.95 58.10L195.70 58.10M209.80 43.40Q212.05 43.40 213.83 42.40Q215.60 41.40 216.65 39.50Q217.70 37.60 217.70 35.05Q217.70 32.45 216.65 30.57Q215.60 28.70 213.83 27.70Q212.05 26.70 209.80 26.70Q207.55 26.70 205.75 27.70Q203.95 28.70 202.90 30.57Q201.85 32.45 201.85 35.05Q201.85 37.60 202.90 39.50Q203.95 41.40 205.75 42.40Q207.55 43.40 209.80 43.40Z"/>
            </g>
        </g>
    </g>
</svg>
